<?xml version="1.0" encoding="UTF-8"?>
<svg xmlns="http://www.w3.org/2000/svg" xmlns:xlink="http://www.w3.org/1999/xlink" width="24pt" height="24pt" viewBox="0 0 24 24" version="1.1">
<g id="surface1">
<path style=" stroke:none;fill-rule:nonzero;fill:rgb(0%,68.627451%,50.196078%);fill-opacity:1;" d="M 18.328125 11.785156 L 20.003906 11.785156 C 20.382812 11.785156 20.6875 11.480469 20.6875 11.101562 L 20.6875 9.425781 C 20.6875 9.046875 20.382812 8.738281 20.003906 8.738281 L 18.328125 8.738281 C 17.949219 8.738281 17.640625 9.046875 17.640625 9.425781 L 17.640625 11.101562 C 17.640625 11.480469 17.949219 11.785156 18.328125 11.785156 Z M 18.34375 9.441406 L 19.984375 9.441406 L 19.984375 11.082031 L 18.34375 11.082031 Z M 18.328125 16.238281 L 20.003906 16.238281 C 20.382812 16.238281 20.6875 15.933594 20.6875 15.554688 L 20.6875 13.878906 C 20.6875 13.5 20.382812 13.191406 20.003906 13.191406 L 18.328125 13.191406 C 17.949219 13.191406 17.640625 13.5 17.640625 13.878906 L 17.640625 15.554688 C 17.640625 15.933594 17.949219 16.238281 18.328125 16.238281 Z M 18.34375 13.894531 L 19.984375 13.894531 L 19.984375 15.535156 L 18.34375 15.535156 Z M 13.550781 11.785156 L 15.226562 11.785156 C 15.605469 11.785156 15.910156 11.480469 15.910156 11.101562 L 15.910156 9.425781 C 15.910156 9.046875 15.605469 8.738281 15.226562 8.738281 L 13.550781 8.738281 C 13.171875 8.738281 12.863281 9.046875 12.863281 9.425781 L 12.863281 11.101562 C 12.863281 11.480469 13.171875 11.785156 13.550781 11.785156 Z M 13.566406 9.441406 L 15.207031 9.441406 L 15.207031 11.082031 L 13.566406 11.082031 Z M 5.671875 17.4375 L 3.996094 17.4375 C 3.617188 17.4375 3.3125 17.746094 3.3125 18.125 L 3.3125 19.796875 C 3.3125 20.175781 3.617188 20.484375 3.996094 20.484375 L 5.671875 20.484375 C 6.050781 20.484375 6.359375 20.175781 6.359375 19.796875 L 6.359375 18.125 C 6.359375 17.746094 6.050781 17.4375 5.671875 17.4375 Z M 5.65625 19.78125 L 4.015625 19.78125 L 4.015625 18.140625 L 5.65625 18.140625 Z M 5.671875 8.738281 L 3.996094 8.738281 C 3.617188 8.738281 3.3125 9.046875 3.3125 9.425781 L 3.3125 11.101562 C 3.3125 11.480469 3.617188 11.785156 3.996094 11.785156 L 5.671875 11.785156 C 6.050781 11.785156 6.359375 11.480469 6.359375 11.101562 L 6.359375 9.425781 C 6.359375 9.046875 6.050781 8.738281 5.671875 8.738281 Z M 5.65625 11.082031 L 4.015625 11.082031 L 4.015625 9.441406 L 5.65625 9.441406 Z M 13.550781 16.136719 L 15.226562 16.136719 C 15.605469 16.136719 15.910156 15.828125 15.910156 15.449219 L 15.910156 13.773438 C 15.910156 13.398438 15.605469 13.089844 15.226562 13.089844 L 13.550781 13.089844 C 13.171875 13.089844 12.863281 13.398438 12.863281 13.773438 L 12.863281 15.449219 C 12.863281 15.828125 13.171875 16.136719 13.550781 16.136719 Z M 13.566406 13.792969 L 15.207031 13.792969 L 15.207031 15.433594 L 13.566406 15.433594 Z M 21.039062 1.605469 L 19.535156 1.605469 L 19.535156 1.070312 C 19.535156 0.480469 19.054688 0 18.464844 0 L 18.304688 0 C 17.714844 0 17.234375 0.480469 17.234375 1.070312 L 17.234375 1.605469 L 6.765625 1.605469 L 6.765625 1.070312 C 6.765625 0.480469 6.285156 0 5.695312 0 L 5.535156 0 C 4.945312 0 4.464844 0.480469 4.464844 1.070312 L 4.464844 1.605469 L 2.960938 1.605469 C 1.992188 1.605469 1.203125 2.394531 1.203125 3.367188 L 1.203125 22.242188 C 1.203125 23.210938 1.988281 24 2.960938 24 L 21.039062 24 C 22.011719 24 22.796875 23.210938 22.796875 22.242188 L 22.796875 3.367188 C 22.796875 2.394531 22.007812 1.605469 21.039062 1.605469 Z M 17.9375 1.070312 C 17.9375 0.867188 18.101562 0.703125 18.304688 0.703125 L 18.464844 0.703125 C 18.667969 0.703125 18.832031 0.867188 18.832031 1.070312 L 18.832031 1.605469 L 17.9375 1.605469 Z M 5.167969 1.070312 C 5.167969 0.867188 5.332031 0.703125 5.535156 0.703125 L 5.695312 0.703125 C 5.898438 0.703125 6.0625 0.867188 6.0625 1.070312 L 6.0625 1.605469 L 5.167969 1.605469 Z M 22.09375 22.242188 C 22.09375 22.824219 21.621094 23.296875 21.039062 23.296875 L 2.960938 23.296875 C 2.378906 23.296875 1.90625 22.824219 1.90625 22.242188 L 1.90625 22.238281 C 2.199219 22.460938 2.566406 22.59375 2.960938 22.59375 L 17.214844 22.59375 C 17.683594 22.59375 18.128906 22.410156 18.460938 22.078125 L 22.09375 18.441406 Z M 18.101562 21.441406 C 18.128906 21.328125 18.144531 21.210938 18.144531 21.089844 L 18.144531 18.742188 C 18.144531 18.296875 18.503906 17.9375 18.945312 17.9375 L 21.292969 17.9375 C 21.414062 17.9375 21.535156 17.921875 21.648438 17.894531 Z M 22.09375 6.628906 L 7.117188 6.628906 C 6.921875 6.628906 6.765625 6.789062 6.765625 6.980469 C 6.765625 7.175781 6.921875 7.332031 7.117188 7.332031 L 22.09375 7.332031 L 22.09375 16.433594 C 22.09375 16.875 21.734375 17.234375 21.292969 17.234375 L 18.945312 17.234375 C 18.117188 17.234375 17.441406 17.910156 17.441406 18.742188 L 17.441406 21.089844 C 17.441406 21.53125 17.082031 21.890625 16.636719 21.890625 L 2.960938 21.890625 C 2.378906 21.890625 1.90625 21.417969 1.90625 20.832031 L 1.90625 7.332031 L 5.710938 7.332031 C 5.902344 7.332031 6.0625 7.175781 6.0625 6.980469 C 6.0625 6.789062 5.902344 6.628906 5.710938 6.628906 L 1.90625 6.628906 L 1.90625 3.367188 C 1.90625 2.785156 2.378906 2.308594 2.960938 2.308594 L 4.464844 2.308594 L 4.464844 3.34375 C 4.464844 3.933594 4.945312 4.414062 5.535156 4.414062 C 5.726562 4.414062 5.886719 4.253906 5.886719 4.0625 C 5.886719 3.867188 5.726562 3.710938 5.535156 3.710938 C 5.332031 3.710938 5.167969 3.546875 5.167969 3.34375 L 5.167969 2.308594 L 17.234375 2.308594 L 17.234375 3.34375 C 17.234375 3.933594 17.714844 4.414062 18.304688 4.414062 C 18.5 4.414062 18.65625 4.253906 18.65625 4.0625 C 18.65625 3.867188 18.5 3.710938 18.304688 3.710938 C 18.101562 3.710938 17.9375 3.546875 17.9375 3.34375 L 17.9375 2.308594 L 21.039062 2.308594 C 21.621094 2.308594 22.09375 2.785156 22.09375 3.367188 Z M 5.671875 13.089844 L 3.996094 13.089844 C 3.617188 13.089844 3.3125 13.398438 3.3125 13.773438 L 3.3125 15.449219 C 3.3125 15.828125 3.617188 16.136719 3.996094 16.136719 L 5.671875 16.136719 C 6.050781 16.136719 6.359375 15.828125 6.359375 15.449219 L 6.359375 13.773438 C 6.359375 13.398438 6.050781 13.089844 5.671875 13.089844 Z M 5.65625 15.433594 L 4.015625 15.433594 L 4.015625 13.792969 L 5.65625 13.792969 Z M 8.773438 11.785156 L 10.449219 11.785156 C 10.828125 11.785156 11.136719 11.480469 11.136719 11.101562 L 11.136719 9.425781 C 11.136719 9.046875 10.828125 8.738281 10.449219 8.738281 L 8.773438 8.738281 C 8.394531 8.738281 8.089844 9.046875 8.089844 9.425781 L 8.089844 11.101562 C 8.089844 11.480469 8.394531 11.785156 8.773438 11.785156 Z M 8.792969 9.441406 L 10.433594 9.441406 L 10.433594 11.082031 L 8.792969 11.082031 Z M 13.566406 19.78125 C 13.558594 19.59375 13.40625 19.445312 13.214844 19.445312 C 13.023438 19.445312 12.863281 19.605469 12.863281 19.796875 C 12.863281 20.175781 13.171875 20.484375 13.550781 20.484375 L 15.226562 20.484375 C 15.605469 20.484375 15.910156 20.175781 15.910156 19.796875 L 15.910156 18.125 C 15.910156 17.746094 15.605469 17.4375 15.226562 17.4375 L 13.550781 17.4375 C 13.171875 17.4375 12.863281 17.746094 12.863281 18.125 L 12.863281 18.605469 C 12.863281 18.800781 13.023438 18.957031 13.214844 18.957031 C 13.410156 18.957031 13.566406 18.800781 13.566406 18.605469 L 13.566406 18.140625 L 15.207031 18.140625 L 15.207031 19.78125 Z M 8.773438 16.136719 L 10.449219 16.136719 C 10.828125 16.136719 11.136719 15.828125 11.136719 15.449219 L 11.136719 13.773438 C 11.136719 13.398438 10.828125 13.089844 10.449219 13.089844 L 8.773438 13.089844 C 8.394531 13.089844 8.089844 13.398438 8.089844 13.773438 L 8.089844 15.449219 C 8.089844 15.828125 8.394531 16.136719 8.773438 16.136719 Z M 8.792969 13.792969 L 10.433594 13.792969 L 10.433594 15.433594 L 8.792969 15.433594 Z M 8.773438 20.484375 L 10.449219 20.484375 C 10.828125 20.484375 11.136719 20.175781 11.136719 19.796875 L 11.136719 18.125 C 11.136719 17.746094 10.828125 17.4375 10.449219 17.4375 L 8.773438 17.4375 C 8.394531 17.4375 8.089844 17.746094 8.089844 18.125 L 8.089844 19.796875 C 8.089844 20.175781 8.394531 20.484375 8.773438 20.484375 Z M 8.792969 18.140625 L 10.433594 18.140625 L 10.433594 19.78125 L 8.792969 19.78125 Z M 8.792969 18.140625 "/>
</g>
</svg>
