<?xml version="1.0" encoding="UTF-8"?>
<svg xmlns="http://www.w3.org/2000/svg" xmlns:xlink="http://www.w3.org/1999/xlink" width="24pt" height="24pt" viewBox="0 0 24 24" version="1.1">
<g id="surface1">
<path style=" stroke:none;fill-rule:nonzero;fill:rgb(0%,68.627451%,50.196078%);fill-opacity:1;" d="M 24 8.902344 L 24 3.484375 L 23.226562 3.484375 L 23.226562 8.128906 L 22.453125 8.128906 L 22.453125 4.644531 L 21.675781 4.644531 L 21.675781 8.128906 L 20.902344 8.128906 L 20.902344 6.195312 L 20.128906 6.195312 L 20.128906 8.128906 L 19.355469 8.128906 L 19.355469 7.355469 L 18.582031 7.355469 L 18.582031 8.40625 L 17.769531 9.699219 C 16.9375 9.777344 16.152344 10.070312 15.484375 10.554688 L 15.484375 8.515625 C 15.484375 6.554688 14.71875 4.707031 13.328125 3.3125 C 11.9375 1.925781 10.089844 1.160156 8.128906 1.160156 C 4.074219 1.160156 0.773438 4.460938 0.773438 8.515625 L 0.773438 19.8125 C 0.324219 19.972656 0 20.398438 0 20.902344 L 0 22.839844 L 16.257812 22.839844 L 16.257812 20.902344 C 16.257812 20.398438 15.933594 19.972656 15.484375 19.8125 L 15.484375 18.097656 C 16.160156 18.585938 16.957031 18.878906 17.804688 18.949219 L 17.804688 19.742188 L 18.195312 19.742188 C 19.640625 19.742188 21 19.179688 22.023438 18.152344 L 22.296875 17.878906 L 21.738281 17.320312 C 22.449219 16.484375 22.839844 15.433594 22.839844 14.324219 C 22.839844 11.925781 21.015625 9.949219 18.683594 9.703125 L 19.183594 8.902344 Z M 17.222656 10.578125 L 16.703125 11.40625 L 17.359375 11.816406 L 17.804688 11.105469 L 17.804688 13.96875 L 14.324219 14.289062 C 14.332031 13.308594 14.703125 12.378906 15.378906 11.671875 L 15.492188 11.550781 C 15.976562 11.074219 16.570312 10.746094 17.222656 10.578125 Z M 8.128906 1.933594 C 9.882812 1.933594 11.539062 2.621094 12.78125 3.863281 C 14.023438 5.109375 14.710938 6.761719 14.710938 8.515625 L 14.710938 11.257812 C 13.960938 12.101562 13.546875 13.183594 13.546875 14.324219 C 13.546875 14.464844 13.554688 14.605469 13.570312 14.742188 C 13.65625 15.722656 14.058594 16.65625 14.710938 17.390625 L 14.710938 18.195312 L 13.160156 18.195312 L 13.160156 18.96875 L 14.710938 18.96875 L 14.710938 19.742188 L 1.546875 19.742188 L 1.546875 18.96875 L 12.386719 18.96875 L 12.386719 18.195312 L 8.515625 18.195312 L 8.515625 13.933594 L 9.675781 13.933594 C 10.8125 13.933594 11.882812 13.492188 12.6875 12.6875 C 13.492188 11.882812 13.933594 10.8125 13.933594 9.675781 L 13.933594 9.289062 L 12 9.289062 C 10.558594 9.289062 9.289062 10.011719 8.515625 11.109375 L 8.515625 5.03125 C 8.515625 4.605469 8.863281 4.257812 9.289062 4.257812 C 9.496094 4.257812 9.691406 4.339844 9.835938 4.484375 C 9.984375 4.632812 10.066406 4.828125 10.066406 5.03125 C 10.066406 5.238281 9.984375 5.433594 9.835938 5.578125 C 9.691406 5.726562 9.496094 5.804688 9.289062 5.804688 L 9.289062 6.582031 C 9.703125 6.582031 10.09375 6.417969 10.382812 6.125 C 10.675781 5.832031 10.839844 5.445312 10.839844 5.03125 C 10.839844 4.621094 10.675781 4.230469 10.382812 3.9375 C 10.09375 3.644531 9.703125 3.484375 9.289062 3.484375 C 8.4375 3.484375 7.742188 4.179688 7.742188 5.03125 L 7.742188 7.003906 C 7.289062 6.472656 6.734375 6.03125 6.109375 5.71875 C 5.71875 5.523438 5.277344 5.417969 4.839844 5.417969 C 4.371094 5.417969 3.933594 5.601562 3.609375 5.929688 C 3.28125 6.257812 3.097656 6.691406 3.097656 7.160156 C 3.097656 7.519531 3.242188 7.867188 3.492188 8.121094 C 4.003906 8.632812 4.898438 8.628906 5.410156 8.121094 C 5.660156 7.867188 5.804688 7.519531 5.804688 7.160156 L 5.804688 6.96875 L 5.03125 6.96875 L 5.03125 7.160156 C 5.03125 7.316406 4.96875 7.464844 4.863281 7.574219 C 4.648438 7.789062 4.253906 7.789062 4.039062 7.570312 C 3.933594 7.464844 3.871094 7.316406 3.871094 7.160156 C 3.871094 6.902344 3.972656 6.660156 4.160156 6.476562 C 4.339844 6.292969 4.578125 6.195312 4.839844 6.195312 C 5.160156 6.195312 5.476562 6.269531 5.765625 6.414062 C 6.386719 6.71875 6.933594 7.175781 7.351562 7.738281 L 7.386719 7.785156 C 7.617188 8.09375 7.742188 8.460938 7.742188 8.847656 L 7.742188 12.910156 C 7.101562 12.121094 6.125 11.613281 5.03125 11.613281 L 3.097656 11.613281 L 3.097656 12 C 3.097656 13.921875 4.660156 15.484375 6.582031 15.484375 L 7.742188 15.484375 L 7.742188 18.195312 L 1.546875 18.195312 L 1.546875 8.515625 C 1.546875 4.886719 4.5 1.933594 8.128906 1.933594 Z M 11.832031 10.492188 L 11.699219 10.554688 C 10.730469 11.039062 9.816406 11.636719 8.980469 12.335938 L 8.648438 12.613281 C 9.058594 11.144531 10.402344 10.066406 12 10.066406 L 13.140625 10.066406 C 13.054688 10.847656 12.707031 11.574219 12.140625 12.140625 C 11.480469 12.796875 10.605469 13.160156 9.675781 13.160156 L 9.195312 13.160156 L 9.476562 12.929688 C 10.265625 12.269531 11.128906 11.703125 12.039062 11.25 L 12.167969 11.1875 Z M 7.246094 14.609375 L 7.324219 14.710938 L 6.582031 14.710938 C 5.21875 14.710938 4.085938 13.699219 3.898438 12.386719 L 5.03125 12.386719 C 5.941406 12.386719 6.746094 12.839844 7.234375 13.527344 C 6.609375 13.042969 5.84375 12.773438 5.03125 12.773438 L 5.03125 13.546875 C 5.898438 13.546875 6.703125 13.9375 7.246094 14.609375 Z M 15.484375 22.066406 L 0.773438 22.066406 L 0.773438 20.902344 C 0.773438 20.691406 0.949219 20.515625 1.160156 20.515625 L 15.097656 20.515625 C 15.308594 20.515625 15.484375 20.691406 15.484375 20.902344 Z M 15.378906 16.976562 C 14.871094 16.445312 14.53125 15.773438 14.394531 15.058594 L 17.804688 14.746094 L 17.804688 18.175781 C 16.875 18.082031 16.023438 17.667969 15.378906 16.976562 Z M 18.582031 18.953125 L 18.582031 15.257812 L 21.191406 17.867188 C 20.453125 18.496094 19.546875 18.871094 18.582031 18.953125 Z M 22.066406 14.324219 C 22.066406 15.226562 21.757812 16.082031 21.191406 16.773438 L 18.582031 14.164062 L 18.582031 10.472656 C 20.535156 10.667969 22.066406 12.320312 22.066406 14.324219 Z M 22.066406 14.324219 "/>
</g>
</svg>
