<?xml version="1.0" encoding="UTF-8"?>
<svg xmlns="http://www.w3.org/2000/svg" xmlns:xlink="http://www.w3.org/1999/xlink" width="24pt" height="24pt" viewBox="0 0 24 24" version="1.1">
<g id="surface1">
<path style=" stroke:none;fill-rule:nonzero;fill:rgb(0%,68.627451%,50.196078%);fill-opacity:1;" d="M 22.917969 1.804688 C 22.878906 1.210938 22.390625 0.75 21.796875 0.75 L 21.375 0.75 C 21.167969 0.75 21 0.917969 21 1.125 L 21 6.75 L 20.25 6.75 L 20.25 1.875 C 20.25 1.253906 19.746094 0.75 19.125 0.75 C 18.503906 0.75 18 1.253906 18 1.875 L 18 6.75 L 17.25 6.75 L 17.25 1.125 C 17.25 0.917969 17.082031 0.75 16.875 0.75 L 16.453125 0.75 C 15.859375 0.75 15.371094 1.210938 15.332031 1.804688 L 15 7.101562 C 15 7.109375 15 7.117188 15 7.125 L 15 7.875 C 15 8.910156 15.839844 9.75 16.875 9.75 L 18 9.75 L 18 22.875 C 18 23.082031 18.167969 23.25 18.375 23.25 L 19.875 23.25 C 20.082031 23.25 20.25 23.082031 20.25 22.875 L 20.25 9.75 L 21.375 9.75 C 22.410156 9.75 23.25 8.910156 23.25 7.875 L 23.25 7.125 C 23.25 7.117188 23.25 7.109375 23.25 7.101562 Z M 19.5 22.5 L 18.75 22.5 L 18.75 18 L 19.5 18 Z M 19.5 17.25 L 18.75 17.25 L 18.75 9.75 L 19.5 9.75 Z M 22.5 7.875 C 22.5 8.496094 21.996094 9 21.375 9 L 16.875 9 C 16.253906 9 15.75 8.496094 15.75 7.875 L 15.75 7.136719 L 16.082031 1.851562 C 16.09375 1.652344 16.257812 1.5 16.453125 1.5 L 16.5 1.5 L 16.5 7.125 C 16.5 7.332031 16.667969 7.5 16.875 7.5 L 18.375 7.5 C 18.582031 7.5 18.75 7.332031 18.75 7.125 L 18.75 1.875 C 18.75 1.667969 18.917969 1.5 19.125 1.5 C 19.332031 1.5 19.5 1.667969 19.5 1.875 L 19.5 7.125 C 19.5 7.332031 19.667969 7.5 19.875 7.5 L 21.375 7.5 C 21.582031 7.5 21.75 7.332031 21.75 7.125 L 21.75 1.5 L 21.796875 1.5 C 21.992188 1.5 22.15625 1.652344 22.167969 1.851562 L 22.5 7.136719 Z M 22.5 7.875 "/>
<path style=" stroke:none;fill-rule:nonzero;fill:rgb(0%,68.627451%,50.196078%);fill-opacity:1;" d="M 1.125 23.25 L 15.375 23.25 C 15.582031 23.25 15.75 23.082031 15.75 22.875 L 15.75 15.375 C 15.75 14.339844 14.910156 13.5 13.875 13.5 L 12.59375 13.5 C 12.511719 13.316406 12.402344 13.144531 12.269531 12.996094 C 12.316406 12.863281 12.347656 12.726562 12.363281 12.585938 L 12.386719 12.605469 C 12.625 12.300781 12.828125 11.972656 12.996094 11.625 L 13.125 11.625 C 13.933594 11.625 14.648438 11.109375 14.902344 10.34375 C 15.160156 9.578125 14.894531 8.734375 14.25 8.25 L 14.625 8.25 C 14.742188 8.25 14.847656 8.195312 14.921875 8.105469 C 14.992188 8.015625 15.015625 7.894531 14.988281 7.785156 L 14.898438 7.421875 C 14.722656 6.71875 14.164062 6.183594 13.457031 6.039062 L 12.859375 1.855469 C 12.765625 1.214844 12.300781 0.75 11.75 0.75 L 4.75 0.75 C 4.199219 0.75 3.734375 1.214844 3.640625 1.855469 L 3.042969 6.039062 C 2.335938 6.183594 1.777344 6.71875 1.601562 7.421875 L 1.511719 7.785156 C 1.484375 7.894531 1.507812 8.015625 1.578125 8.105469 C 1.652344 8.195312 1.757812 8.25 1.875 8.25 L 2.25 8.25 C 1.605469 8.734375 1.339844 9.578125 1.597656 10.34375 C 1.851562 11.109375 2.566406 11.625 3.375 11.625 L 3.503906 11.625 C 3.671875 11.972656 3.875 12.300781 4.113281 12.605469 L 4.136719 12.585938 C 4.152344 12.726562 4.183594 12.863281 4.230469 12.996094 C 4.097656 13.144531 3.988281 13.316406 3.90625 13.5 L 2.625 13.5 C 1.589844 13.5 0.75 14.339844 0.75 15.375 L 0.75 22.875 C 0.75 23.082031 0.917969 23.25 1.125 23.25 Z M 14.25 14.316406 C 14.699219 14.472656 15 14.898438 15 15.375 L 15 22.5 L 14.25 22.5 Z M 10.125 22.5 L 6.375 22.5 L 6.375 21.75 L 10.125 21.75 Z M 12.75 14.25 L 13.5 14.25 L 13.5 18.75 L 12.75 18.75 Z M 14.25 9.75 C 14.25 10.308594 13.839844 10.78125 13.289062 10.863281 C 13.429688 10.378906 13.5 9.878906 13.5 9.375 L 13.5 8.691406 C 13.949219 8.847656 14.25 9.273438 14.25 9.75 Z M 4.382812 1.960938 C 4.421875 1.703125 4.582031 1.5 4.75 1.5 L 11.75 1.5 C 11.917969 1.5 12.078125 1.703125 12.117188 1.960938 L 12.476562 4.5 L 4.023438 4.5 Z M 3.914062 5.25 L 12.585938 5.25 L 12.691406 6 L 3.808594 6 Z M 2.25 9.75 C 2.25 9.273438 2.550781 8.847656 3 8.691406 L 3 9.375 C 3 9.878906 3.070312 10.378906 3.210938 10.863281 C 2.660156 10.78125 2.25 10.308594 2.25 9.75 Z M 2.359375 7.5 C 2.519531 7.050781 2.945312 6.75 3.421875 6.75 L 13.078125 6.75 C 13.554688 6.75 13.980469 7.050781 14.140625 7.5 Z M 3.75 9.375 L 3.75 8.25 L 12.75 8.25 L 12.75 9.375 C 12.753906 10.136719 12.558594 10.890625 12.1875 11.558594 C 11.761719 10.683594 10.742188 10.277344 9.835938 10.621094 C 9.488281 10.078125 8.890625 9.75 8.25 9.75 L 8.25 9.375 C 8.25 9.167969 8.082031 9 7.875 9 C 7.667969 9 7.5 9.167969 7.5 9.375 L 7.5 9.90625 C 7.15625 10.058594 6.867188 10.304688 6.664062 10.621094 C 5.757812 10.277344 4.738281 10.683594 4.3125 11.558594 C 3.941406 10.890625 3.746094 10.136719 3.75 9.375 Z M 10.875 15.375 C 10.773438 15.375 10.671875 15.363281 10.574219 15.335938 C 10.472656 15.304688 10.359375 15.324219 10.269531 15.382812 C 10.179688 15.441406 10.121094 15.535156 10.105469 15.644531 C 9.972656 16.566406 9.179688 17.25 8.25 17.25 C 7.320312 17.25 6.527344 16.566406 6.394531 15.644531 C 6.378906 15.535156 6.320312 15.441406 6.230469 15.382812 C 6.140625 15.324219 6.027344 15.304688 5.925781 15.335938 C 5.410156 15.476562 4.867188 15.238281 4.625 14.765625 C 4.382812 14.292969 4.503906 13.710938 4.914062 13.375 C 5.054688 13.261719 5.09375 13.066406 5.007812 12.90625 C 4.921875 12.746094 4.875 12.5625 4.875 12.375 C 4.875 11.960938 5.105469 11.578125 5.46875 11.382812 C 5.835938 11.1875 6.28125 11.210938 6.625 11.441406 C 6.722656 11.503906 6.84375 11.519531 6.953125 11.484375 C 7.0625 11.449219 7.148438 11.363281 7.1875 11.253906 C 7.347656 10.800781 7.773438 10.5 8.25 10.5 C 8.726562 10.5 9.152344 10.800781 9.3125 11.253906 C 9.351562 11.363281 9.4375 11.449219 9.546875 11.484375 C 9.65625 11.519531 9.777344 11.503906 9.875 11.441406 C 10.304688 11.152344 10.875 11.195312 11.257812 11.542969 C 11.640625 11.890625 11.734375 12.453125 11.492188 12.90625 C 11.40625 13.066406 11.445312 13.261719 11.585938 13.375 C 11.953125 13.675781 12.09375 14.175781 11.933594 14.625 C 11.777344 15.074219 11.351562 15.375 10.875 15.375 Z M 12 15.75 L 12 18.75 L 8.625 18.75 L 8.625 17.972656 C 9.636719 17.820312 10.472656 17.101562 10.765625 16.121094 C 10.800781 16.125 10.839844 16.125 10.875 16.125 C 11.28125 16.125 11.675781 15.992188 12 15.75 Z M 7.875 17.972656 L 7.875 18.75 L 4.5 18.75 L 4.5 15.75 C 4.824219 15.992188 5.21875 16.125 5.625 16.125 C 5.660156 16.125 5.699219 16.125 5.734375 16.121094 C 6.027344 17.101562 6.863281 17.820312 7.875 17.972656 Z M 3 14.25 L 3.75 14.25 L 3.75 18.75 L 3 18.75 Z M 3 19.5 L 13.5 19.5 L 13.5 22.5 L 10.875 22.5 L 10.875 21.375 C 10.875 21.167969 10.707031 21 10.5 21 L 6 21 C 5.792969 21 5.625 21.167969 5.625 21.375 L 5.625 22.5 L 3 22.5 Z M 1.5 15.375 C 1.5 14.898438 1.800781 14.472656 2.25 14.316406 L 2.25 22.5 L 1.5 22.5 Z M 1.5 15.375 "/>
<path style=" stroke:none;fill-rule:nonzero;fill:rgb(0%,68.627451%,50.196078%);fill-opacity:1;" d="M 10.5 9.375 C 10.5 9.582031 10.332031 9.75 10.125 9.75 C 9.917969 9.75 9.75 9.582031 9.75 9.375 C 9.75 9.167969 9.917969 9 10.125 9 C 10.332031 9 10.5 9.167969 10.5 9.375 Z M 10.5 9.375 "/>
<path style=" stroke:none;fill-rule:nonzero;fill:rgb(0%,68.627451%,50.196078%);fill-opacity:1;" d="M 6.75 9.375 C 6.75 9.582031 6.582031 9.75 6.375 9.75 C 6.167969 9.75 6 9.582031 6 9.375 C 6 9.167969 6.167969 9 6.375 9 C 6.582031 9 6.75 9.167969 6.75 9.375 Z M 6.75 9.375 "/>
<path style=" stroke:none;fill-rule:nonzero;fill:rgb(0%,68.627451%,50.196078%);fill-opacity:1;" d="M 9 12 L 7.5 12 C 7.292969 12 7.125 12.167969 7.125 12.375 C 7.125 12.582031 7.292969 12.75 7.5 12.75 L 9 12.75 C 9.207031 12.75 9.375 12.582031 9.375 12.375 C 9.375 12.167969 9.207031 12 9 12 Z M 9 12 "/>
</g>
</svg>
