<?xml version="1.0" encoding="UTF-8"?>
<svg xmlns="http://www.w3.org/2000/svg" xmlns:xlink="http://www.w3.org/1999/xlink" width="24pt" height="24pt" viewBox="0 0 24 24" version="1.1">
<g id="surface1">
<path style=" stroke:none;fill-rule:nonzero;fill:rgb(0%,68.627451%,50.196078%);fill-opacity:1;" d="M 21.371094 0.765625 C 21.308594 0.476562 21.066406 0.257812 20.773438 0.21875 C 17.871094 -0.140625 15.191406 -0.0585938 12.804688 0.472656 C 9.765625 1.152344 7.164062 2.558594 5.066406 4.65625 C 1.792969 7.929688 1.792969 13.261719 5.066406 16.535156 C 5.382812 16.851562 5.71875 17.136719 6.074219 17.394531 L 6.074219 23.296875 C 6.074219 23.683594 6.386719 24 6.777344 24 C 7.164062 24 7.480469 23.683594 7.480469 23.296875 L 7.480469 18.222656 C 8.570312 18.726562 9.769531 18.996094 11.007812 18.996094 C 13.253906 18.996094 15.363281 18.121094 16.945312 16.535156 C 19.421875 14.058594 18.910156 10.648438 18.742188 8.730469 C 18.484375 5.808594 18.261719 3.285156 21.0625 1.511719 C 21.3125 1.351562 21.4375 1.054688 21.371094 0.765625 Z M 6.058594 5.648438 C 8.535156 3.171875 11.753906 1.773438 15.664062 1.46875 C 13.988281 2.285156 12.367188 3.476562 10.953125 4.96875 C 8.179688 7.898438 6.503906 11.632812 6.144531 15.625 C 3.34375 12.914062 3.300781 8.410156 6.058594 5.648438 Z M 17.339844 8.855469 C 17.5625 11.359375 17.769531 13.722656 15.953125 15.542969 C 14.632812 16.863281 12.878906 17.589844 11.007812 17.589844 C 9.75 17.589844 8.546875 17.261719 7.492188 16.644531 C 7.632812 12.632812 9.210938 8.851562 11.972656 5.9375 C 13.242188 4.597656 14.726562 3.492188 16.269531 2.742188 C 17.019531 2.375 17.78125 2.09375 18.523438 1.90625 C 17.972656 2.613281 17.597656 3.421875 17.394531 4.347656 C 17.070312 5.800781 17.207031 7.355469 17.339844 8.855469 Z M 17.339844 8.855469 "/>
</g>
</svg>
