<?xml version="1.0" encoding="UTF-8"?>
<svg xmlns="http://www.w3.org/2000/svg" xmlns:xlink="http://www.w3.org/1999/xlink" width="24pt" height="24pt" viewBox="0 0 24 24" version="1.1">
<g id="surface1">
<path style=" stroke:none;fill-rule:nonzero;fill:rgb(0%,68.627451%,50.196078%);fill-opacity:1;" d="M 21.1875 20.835938 C 21.1875 21.03125 21.03125 21.1875 20.835938 21.1875 C 20.640625 21.1875 20.484375 21.03125 20.484375 20.835938 C 20.484375 20.640625 20.640625 20.484375 20.835938 20.484375 C 21.03125 20.484375 21.1875 20.640625 21.1875 20.835938 Z M 21.1875 20.835938 "/>
<path style=" stroke:none;fill-rule:nonzero;fill:rgb(0%,68.627451%,50.196078%);fill-opacity:1;" d="M 2.109375 20.835938 C 2.109375 21.03125 1.953125 21.1875 1.757812 21.1875 C 1.5625 21.1875 1.40625 21.03125 1.40625 20.835938 C 1.40625 20.640625 1.5625 20.484375 1.757812 20.484375 C 1.953125 20.484375 2.109375 20.640625 2.109375 20.835938 Z M 2.109375 20.835938 "/>
<path style=" stroke:none;fill-rule:nonzero;fill:rgb(0%,68.627451%,50.196078%);fill-opacity:1;" d="M 22.59375 19.429688 C 22.59375 19.625 22.4375 19.78125 22.242188 19.78125 C 22.046875 19.78125 21.890625 19.625 21.890625 19.429688 C 21.890625 19.234375 22.046875 19.078125 22.242188 19.078125 C 22.4375 19.078125 22.59375 19.234375 22.59375 19.429688 Z M 22.59375 19.429688 "/>
<path style=" stroke:none;fill-rule:nonzero;fill:rgb(0%,68.627451%,50.196078%);fill-opacity:1;" d="M 23.648438 6.328125 L 13.40625 6.328125 C 13.210938 6.328125 13.054688 6.484375 13.054688 6.679688 C 13.054688 6.875 13.210938 7.03125 13.40625 7.03125 L 23.296875 7.03125 L 23.296875 7.734375 L 12.351562 7.734375 L 12.351562 5.613281 C 15.097656 5.429688 17.273438 3.140625 17.273438 0.351562 C 17.273438 0.15625 17.117188 0 16.921875 0 C 14.679688 0 12.761719 1.40625 12 3.378906 C 11.238281 1.40625 9.320312 0 7.078125 0 C 6.882812 0 6.726562 0.15625 6.726562 0.351562 C 6.726562 3.140625 8.902344 5.429688 11.648438 5.613281 L 11.648438 6.328125 L 0.351562 6.328125 C 0.15625 6.328125 0 6.484375 0 6.679688 L 0 23.648438 C 0 23.84375 0.15625 24 0.351562 24 L 23.648438 24 C 23.84375 24 24 23.84375 24 23.648438 L 24 6.679688 C 24 6.484375 23.84375 6.328125 23.648438 6.328125 Z M 23.296875 8.4375 L 23.296875 10.195312 L 22.589844 10.195312 C 21.953125 10.195312 21.613281 10.421875 21.335938 10.605469 C 21.089844 10.769531 20.894531 10.898438 20.472656 10.898438 C 20.046875 10.898438 19.855469 10.769531 19.609375 10.605469 C 19.332031 10.421875 18.988281 10.195312 18.355469 10.195312 C 17.71875 10.195312 17.375 10.421875 17.101562 10.605469 C 16.855469 10.769531 16.660156 10.898438 16.234375 10.898438 C 15.8125 10.898438 15.617188 10.769531 15.371094 10.605469 C 15.097656 10.421875 14.753906 10.195312 14.117188 10.195312 C 13.484375 10.195312 13.140625 10.421875 12.863281 10.605469 C 12.699219 10.714844 12.554688 10.808594 12.351562 10.859375 L 12.351562 8.4375 Z M 18.527344 22.59375 C 18.207031 22.167969 17.695312 21.890625 17.121094 21.890625 L 13.40625 21.890625 C 12.832031 21.890625 12.320312 22.167969 12 22.59375 C 11.679688 22.167969 11.167969 21.890625 10.59375 21.890625 L 6.878906 21.890625 C 6.304688 21.890625 5.792969 22.167969 5.472656 22.59375 C 5.152344 22.167969 4.640625 21.890625 4.066406 21.890625 L 0.703125 21.890625 L 0.703125 10.898438 L 1.410156 10.898438 C 1.832031 10.898438 2.027344 11.027344 2.273438 11.191406 C 2.550781 11.375 2.894531 11.601562 3.527344 11.601562 C 4.164062 11.601562 4.507812 11.375 4.78125 11.191406 C 5.027344 11.027344 5.222656 10.898438 5.644531 10.898438 C 6.070312 10.898438 6.265625 11.027344 6.511719 11.191406 C 6.785156 11.375 7.128906 11.601562 7.765625 11.601562 C 8.398438 11.601562 8.742188 11.375 9.019531 11.191406 C 9.265625 11.027344 9.457031 10.898438 9.882812 10.898438 C 10.304688 10.898438 10.5 11.027344 10.746094 11.191406 C 10.964844 11.335938 11.230469 11.511719 11.648438 11.574219 L 11.648438 13.394531 C 10.949219 13.535156 10.402344 14.09375 10.273438 14.796875 C 9.457031 14.945312 8.835938 15.664062 8.835938 16.523438 L 8.835938 18.023438 C 8.835938 18.21875 8.992188 18.375 9.1875 18.375 C 9.382812 18.375 9.539062 18.21875 9.539062 18.023438 L 9.539062 16.523438 C 9.539062 16.066406 9.832031 15.675781 10.242188 15.527344 L 10.242188 19.429688 C 10.242188 19.625 10.398438 19.78125 10.59375 19.78125 C 10.789062 19.78125 10.945312 19.625 10.945312 19.429688 L 10.945312 15.117188 C 10.945312 14.660156 11.238281 14.269531 11.648438 14.121094 L 11.648438 20.835938 C 11.648438 21.03125 11.804688 21.1875 12 21.1875 C 12.195312 21.1875 12.351562 21.03125 12.351562 20.835938 L 12.351562 14.121094 C 12.761719 14.269531 13.054688 14.660156 13.054688 15.117188 L 13.054688 19.429688 C 13.054688 19.625 13.210938 19.78125 13.40625 19.78125 C 13.601562 19.78125 13.757812 19.625 13.757812 19.429688 L 13.757812 15.527344 C 14.167969 15.675781 14.460938 16.066406 14.460938 16.523438 L 14.460938 18.023438 C 14.460938 18.21875 14.617188 18.375 14.8125 18.375 C 15.007812 18.375 15.164062 18.21875 15.164062 18.023438 L 15.164062 16.523438 C 15.164062 15.664062 14.542969 14.945312 13.726562 14.796875 C 13.597656 14.09375 13.050781 13.535156 12.351562 13.394531 L 12.351562 11.574219 C 12.769531 11.511719 13.035156 11.335938 13.253906 11.191406 C 13.5 11.027344 13.695312 10.898438 14.117188 10.898438 C 14.542969 10.898438 14.734375 11.027344 14.984375 11.191406 C 15.257812 11.375 15.601562 11.601562 16.234375 11.601562 C 16.871094 11.601562 17.214844 11.375 17.488281 11.191406 C 17.734375 11.027344 17.929688 10.898438 18.355469 10.898438 C 18.777344 10.898438 18.972656 11.027344 19.21875 11.191406 C 19.492188 11.375 19.835938 11.601562 20.472656 11.601562 C 21.105469 11.601562 21.449219 11.375 21.726562 11.191406 C 21.972656 11.027344 22.167969 10.898438 22.589844 10.898438 L 23.296875 10.898438 L 23.296875 21.890625 L 19.933594 21.890625 C 19.359375 21.890625 18.847656 22.167969 18.527344 22.59375 Z M 18.117188 23.296875 L 12.410156 23.296875 C 12.558594 22.886719 12.949219 22.59375 13.40625 22.59375 L 17.121094 22.59375 C 17.578125 22.59375 17.96875 22.886719 18.117188 23.296875 Z M 11.589844 23.296875 L 5.882812 23.296875 C 6.03125 22.886719 6.421875 22.59375 6.878906 22.59375 L 10.59375 22.59375 C 11.050781 22.59375 11.441406 22.886719 11.589844 23.296875 Z M 11.648438 10.859375 C 11.445312 10.808594 11.300781 10.714844 11.136719 10.605469 C 10.859375 10.421875 10.519531 10.195312 9.882812 10.195312 C 9.246094 10.195312 8.902344 10.421875 8.628906 10.605469 C 8.382812 10.769531 8.1875 10.898438 7.765625 10.898438 C 7.339844 10.898438 7.144531 10.769531 6.898438 10.605469 C 6.625 10.421875 6.28125 10.195312 5.644531 10.195312 C 5.011719 10.195312 4.667969 10.421875 4.394531 10.605469 C 4.148438 10.769531 3.953125 10.898438 3.527344 10.898438 C 3.105469 10.898438 2.910156 10.769531 2.664062 10.605469 C 2.390625 10.421875 2.046875 10.195312 1.410156 10.195312 L 0.703125 10.195312 L 0.703125 8.4375 L 11.648438 8.4375 Z M 16.554688 0.71875 C 16.378906 2.945312 14.59375 4.730469 12.367188 4.90625 C 12.542969 2.679688 14.328125 0.894531 16.554688 0.71875 Z M 7.445312 0.71875 C 9.671875 0.894531 11.457031 2.679688 11.632812 4.90625 C 9.40625 4.730469 7.621094 2.945312 7.445312 0.71875 Z M 11.648438 7.03125 L 11.648438 7.734375 L 0.703125 7.734375 L 0.703125 7.03125 Z M 0.703125 22.59375 L 4.066406 22.59375 C 4.523438 22.59375 4.914062 22.886719 5.0625 23.296875 L 0.703125 23.296875 Z M 18.9375 23.296875 C 19.085938 22.886719 19.476562 22.59375 19.933594 22.59375 L 23.296875 22.59375 L 23.296875 23.296875 Z M 18.9375 23.296875 "/>
</g>
</svg>
