<?xml version="1.0" encoding="UTF-8"?>
<svg xmlns="http://www.w3.org/2000/svg" xmlns:xlink="http://www.w3.org/1999/xlink" width="24pt" height="24pt" viewBox="0 0 24 24" version="1.1">
<g id="surface1">
<path style=" stroke:none;fill-rule:nonzero;fill:rgb(0%,68.627451%,50.196078%);fill-opacity:1;" d="M 13.199219 16.273438 L 13.199219 3.601562 C 13.199219 3.492188 13.15625 3.390625 13.082031 3.316406 C 13.011719 3.234375 12.90625 3.191406 12.800781 3.199219 L 11.199219 3.207031 C 10.980469 3.207031 10.800781 3.382812 10.800781 3.605469 L 10.800781 16.273438 C 9.402344 16.933594 8.804688 18.605469 9.46875 20 C 9.839844 20.789062 10.554688 21.355469 11.40625 21.539062 C 11.597656 21.582031 11.796875 21.601562 11.996094 21.601562 C 13.542969 21.601562 14.796875 20.347656 14.796875 18.800781 C 14.796875 17.722656 14.175781 16.738281 13.199219 16.273438 Z M 13.886719 19.46875 C 13.761719 19.816406 13.546875 20.121094 13.257812 20.355469 L 13.257812 20.351562 C 12.785156 20.738281 12.164062 20.882812 11.566406 20.753906 C 10.488281 20.515625 9.808594 19.449219 10.046875 18.371094 C 10.195312 17.699219 10.683594 17.148438 11.332031 16.917969 C 11.492188 16.863281 11.597656 16.710938 11.601562 16.542969 L 11.601562 4.003906 L 12.398438 4 L 12.398438 16.542969 C 12.398438 16.710938 12.507812 16.863281 12.667969 16.917969 C 13.707031 17.285156 14.253906 18.425781 13.886719 19.46875 Z M 13.886719 19.46875 "/>
<path style=" stroke:none;fill-rule:nonzero;fill:rgb(0%,68.627451%,50.196078%);fill-opacity:1;" d="M 16.382812 16 C 15.976562 15.363281 15.4375 14.824219 14.800781 14.417969 L 14.800781 12 L 16 12 C 16.222656 12 16.398438 11.820312 16.398438 11.601562 C 16.398438 11.378906 16.222656 11.199219 16 11.199219 L 14.800781 11.199219 L 14.800781 10.402344 L 16 10.402344 C 16.222656 10.402344 16.398438 10.222656 16.398438 10 C 16.398438 9.78125 16.222656 9.601562 16 9.601562 L 14.800781 9.601562 L 14.800781 8.800781 L 16 8.800781 C 16.222656 8.800781 16.398438 8.621094 16.398438 8.402344 C 16.398438 8.179688 16.222656 8 16 8 L 14.800781 8 L 14.800781 7.199219 L 16 7.199219 C 16.222656 7.199219 16.398438 7.019531 16.398438 6.800781 C 16.398438 6.578125 16.222656 6.402344 16 6.402344 L 14.800781 6.402344 L 14.800781 5.601562 L 16 5.601562 C 16.222656 5.601562 16.398438 5.421875 16.398438 5.199219 C 16.398438 4.980469 16.222656 4.800781 16 4.800781 L 14.800781 4.800781 L 14.800781 2.800781 C 14.796875 1.253906 13.546875 0 12 0 C 10.453125 0 9.203125 1.253906 9.199219 2.800781 L 9.199219 14.417969 C 6.78125 15.964844 6.070312 19.179688 7.617188 21.597656 C 9.164062 24.019531 12.378906 24.726562 14.800781 23.179688 C 17.21875 21.632812 17.929688 18.417969 16.382812 16 Z M 12 23.203125 C 9.570312 23.203125 7.597656 21.238281 7.59375 18.808594 C 7.59375 17.230469 8.433594 15.773438 9.800781 14.988281 C 9.921875 14.917969 10 14.785156 10 14.640625 L 10 2.800781 C 10 1.695312 10.894531 0.800781 12 0.800781 C 13.105469 0.800781 14 1.695312 14 2.800781 L 14 14.640625 C 14 14.785156 14.078125 14.917969 14.199219 14.988281 C 16.304688 16.199219 17.03125 18.890625 15.820312 20.996094 C 15.03125 22.363281 13.578125 23.203125 12 23.203125 Z M 12 23.203125 "/>
</g>
</svg>
