<?xml version="1.0" encoding="UTF-8"?>
<svg xmlns="http://www.w3.org/2000/svg" xmlns:xlink="http://www.w3.org/1999/xlink" width="24pt" height="24pt" viewBox="0 0 24 24" version="1.1">
<g id="surface1">
<path style=" stroke:none;fill-rule:nonzero;fill:rgb(0%,68.627451%,50.196078%);fill-opacity:1;" d="M 9.046875 6 C 9.046875 6.019531 9.046875 6.039062 9.046875 6.054688 C 9.0625 6.34375 9.308594 6.5625 9.59375 6.546875 L 18.726562 6.546875 C 18.746094 6.546875 18.765625 6.546875 18.785156 6.546875 C 19.070312 6.53125 19.289062 6.285156 19.273438 6 L 19.273438 0.546875 C 19.273438 0.527344 19.273438 0.507812 19.273438 0.488281 C 19.257812 0.203125 19.015625 -0.015625 18.726562 0 L 9.59375 0 C 9.574219 0 9.554688 0 9.535156 0 C 9.25 0.015625 9.03125 0.261719 9.046875 0.546875 Z M 10.136719 1.089844 L 18.183594 1.089844 L 18.183594 5.453125 L 10.136719 5.453125 Z M 10.136719 1.089844 "/>
<path style=" stroke:none;fill-rule:nonzero;fill:rgb(0%,68.627451%,50.196078%);fill-opacity:1;" d="M 22 14.726562 L 22 9.273438 C 22 9.253906 22 9.234375 22 9.21875 C 21.984375 8.929688 21.742188 8.710938 21.457031 8.726562 L 9.59375 8.726562 C 9.574219 8.726562 9.554688 8.726562 9.535156 8.726562 C 9.25 8.742188 9.03125 8.988281 9.046875 9.273438 L 9.046875 14.726562 C 9.046875 14.746094 9.046875 14.765625 9.046875 14.78125 C 9.0625 15.070312 9.308594 15.289062 9.59375 15.273438 L 21.457031 15.273438 C 21.472656 15.273438 21.492188 15.273438 21.511719 15.273438 C 21.796875 15.257812 22.015625 15.011719 22 14.726562 Z M 20.910156 14.183594 L 10.136719 14.183594 L 10.136719 9.816406 L 20.910156 9.816406 Z M 20.910156 14.183594 "/>
<path style=" stroke:none;fill-rule:nonzero;fill:rgb(0%,68.627451%,50.196078%);fill-opacity:1;" d="M 19.273438 18 C 19.273438 17.980469 19.273438 17.960938 19.273438 17.945312 C 19.257812 17.65625 19.015625 17.4375 18.726562 17.453125 L 9.59375 17.453125 C 9.574219 17.453125 9.554688 17.453125 9.535156 17.453125 C 9.25 17.46875 9.03125 17.714844 9.046875 18 L 9.046875 23.453125 C 9.046875 23.472656 9.046875 23.492188 9.046875 23.511719 C 9.0625 23.796875 9.308594 24.015625 9.59375 24 L 18.726562 24 C 18.746094 24 18.765625 24 18.785156 24 C 19.070312 23.984375 19.289062 23.738281 19.273438 23.453125 Z M 18.183594 22.910156 L 10.136719 22.910156 L 10.136719 18.546875 L 18.183594 18.546875 Z M 18.183594 22.910156 "/>
<path style=" stroke:none;fill-rule:nonzero;fill:rgb(0%,68.627451%,50.196078%);fill-opacity:1;" d="M 6.753906 2.429688 C 6.46875 1.152344 5.199219 0.347656 3.921875 0.632812 C 2.835938 0.875 2.066406 1.835938 2.066406 2.945312 C 2.039062 4.046875 2.789062 5.019531 3.867188 5.265625 L 3.867188 9.683594 C 2.585938 9.960938 1.773438 11.226562 2.054688 12.503906 C 2.25 13.414062 2.960938 14.121094 3.867188 14.316406 L 3.867188 18.734375 C 2.789062 18.980469 2.039062 19.953125 2.066406 21.054688 C 2.066406 22.363281 3.128906 23.425781 4.441406 23.421875 C 5.75 23.421875 6.8125 22.359375 6.8125 21.046875 C 6.808594 19.9375 6.039062 18.976562 4.957031 18.734375 L 4.957031 14.316406 C 6.035156 14.074219 6.796875 13.105469 6.785156 12 C 6.796875 10.894531 6.035156 9.925781 4.957031 9.683594 L 4.957031 5.265625 C 6.234375 4.976562 7.039062 3.710938 6.753906 2.429688 Z M 5.746094 21.054688 C 5.734375 21.765625 5.152344 22.335938 4.4375 22.335938 C 3.730469 22.335938 3.15625 21.761719 3.15625 21.054688 C 3.15625 20.347656 3.730469 19.773438 4.4375 19.773438 C 5.152344 19.773438 5.734375 20.339844 5.746094 21.054688 Z M 5.722656 12 C 5.722656 12.707031 5.148438 13.28125 4.441406 13.28125 C 4.441406 13.28125 4.4375 13.28125 4.4375 13.28125 C 3.742188 13.265625 3.183594 12.699219 3.183594 12 C 3.183594 11.300781 3.742188 10.734375 4.4375 10.71875 C 5.144531 10.71875 5.71875 11.292969 5.722656 12 Z M 4.4375 4.226562 C 3.742188 4.214844 3.183594 3.644531 3.183594 2.945312 C 3.183594 2.25 3.742188 1.679688 4.4375 1.664062 C 5.152344 1.664062 5.734375 2.234375 5.746094 2.945312 C 5.734375 3.660156 5.152344 4.226562 4.4375 4.226562 Z M 4.4375 4.226562 "/>
<path style=" stroke:none;fill-rule:nonzero;fill:rgb(0%,68.627451%,50.196078%);fill-opacity:1;" d="M 11.230469 3 L 14.363281 3 C 14.667969 3 14.910156 2.757812 14.910156 2.457031 C 14.910156 2.152344 14.667969 1.910156 14.363281 1.910156 L 11.230469 1.910156 C 10.925781 1.910156 10.683594 2.152344 10.683594 2.457031 C 10.683594 2.757812 10.925781 3 11.230469 3 Z M 11.230469 3 "/>
<path style=" stroke:none;fill-rule:nonzero;fill:rgb(0%,68.627451%,50.196078%);fill-opacity:1;" d="M 17.09375 3.546875 L 11.230469 3.546875 C 10.925781 3.546875 10.683594 3.789062 10.683594 4.089844 C 10.683594 4.394531 10.925781 4.636719 11.230469 4.636719 L 17.09375 4.636719 C 17.394531 4.636719 17.636719 4.394531 17.636719 4.089844 C 17.636719 3.789062 17.394531 3.546875 17.09375 3.546875 Z M 17.09375 3.546875 "/>
<path style=" stroke:none;fill-rule:nonzero;fill:rgb(0%,68.627451%,50.196078%);fill-opacity:1;" d="M 11.230469 11.726562 L 14.363281 11.726562 C 14.667969 11.726562 14.910156 11.484375 14.910156 11.183594 C 14.910156 10.878906 14.667969 10.636719 14.363281 10.636719 L 11.230469 10.636719 C 10.925781 10.636719 10.683594 10.878906 10.683594 11.183594 C 10.683594 11.484375 10.925781 11.726562 11.230469 11.726562 Z M 11.230469 11.726562 "/>
<path style=" stroke:none;fill-rule:nonzero;fill:rgb(0%,68.627451%,50.196078%);fill-opacity:1;" d="M 11.230469 13.363281 L 17.09375 13.363281 C 17.394531 13.363281 17.636719 13.121094 17.636719 12.816406 C 17.636719 12.515625 17.394531 12.273438 17.09375 12.273438 L 11.230469 12.273438 C 10.925781 12.273438 10.683594 12.515625 10.683594 12.816406 C 10.683594 13.121094 10.925781 13.363281 11.230469 13.363281 Z M 11.230469 13.363281 "/>
<path style=" stroke:none;fill-rule:nonzero;fill:rgb(0%,68.627451%,50.196078%);fill-opacity:1;" d="M 11.230469 20.453125 L 14.363281 20.453125 C 14.667969 20.453125 14.910156 20.210938 14.910156 19.910156 C 14.910156 19.605469 14.667969 19.363281 14.363281 19.363281 L 11.230469 19.363281 C 10.925781 19.363281 10.683594 19.605469 10.683594 19.910156 C 10.683594 20.210938 10.925781 20.453125 11.230469 20.453125 Z M 11.230469 20.453125 "/>
<path style=" stroke:none;fill-rule:nonzero;fill:rgb(0%,68.627451%,50.196078%);fill-opacity:1;" d="M 11.230469 22.089844 L 17.09375 22.089844 C 17.394531 22.089844 17.636719 21.847656 17.636719 21.542969 C 17.636719 21.242188 17.394531 21 17.09375 21 L 11.230469 21 C 10.925781 21 10.683594 21.242188 10.683594 21.542969 C 10.683594 21.847656 10.925781 22.089844 11.230469 22.089844 Z M 11.230469 22.089844 "/>
</g>
</svg>
