<?xml version="1.0" encoding="UTF-8"?>
<svg xmlns="http://www.w3.org/2000/svg" xmlns:xlink="http://www.w3.org/1999/xlink" width="24pt" height="24pt" viewBox="0 0 24 24" version="1.1">
<g id="surface1">
<path style=" stroke:none;fill-rule:nonzero;fill:rgb(0%,68.627451%,50.196078%);fill-opacity:1;" d="M 23.980469 13.074219 L 23.59375 11.921875 L 23.199219 7.167969 C 23.183594 6.960938 23.007812 6.800781 22.800781 6.800781 L 20.800781 6.800781 C 20.589844 6.800781 20.414062 6.960938 20.398438 7.171875 L 20.007812 12.664062 L 18.585938 14.800781 L 17.46875 14.800781 L 16.773438 13.050781 C 16.699219 12.871094 16.507812 12.769531 16.320312 12.808594 L 14.320312 13.207031 C 14.105469 13.25 13.964844 13.457031 14.003906 13.671875 L 14.804688 18.070312 C 14.820312 18.152344 14.859375 18.226562 14.914062 18.28125 L 16 19.367188 L 16 21.199219 L 15.601562 21.199219 C 15.378906 21.199219 15.199219 21.378906 15.199219 21.601562 L 15.199219 23.601562 C 15.199219 23.820312 15.378906 24 15.601562 24 L 21.199219 24 C 21.421875 24 21.601562 23.820312 21.601562 23.601562 L 21.601562 21.601562 C 21.601562 21.378906 21.421875 21.199219 21.199219 21.199219 L 20.800781 21.199219 L 20.800781 20.164062 L 22.28125 18.683594 C 22.316406 18.648438 22.34375 18.609375 22.367188 18.5625 L 23.964844 14.960938 C 23.988281 14.910156 24 14.855469 24 14.800781 L 24 13.199219 C 24 13.15625 23.992188 13.113281 23.980469 13.074219 Z M 20.800781 23.199219 L 16 23.199219 L 16 22 L 20.800781 22 Z M 23.199219 14.714844 L 21.664062 18.167969 L 20.117188 19.71875 C 20.042969 19.792969 20 19.894531 20 20 L 20 21.199219 L 16.800781 21.199219 L 16.800781 19.199219 C 16.800781 19.09375 16.757812 18.992188 16.683594 18.917969 L 15.570312 17.804688 L 14.863281 13.914062 L 16.152344 13.65625 L 16.828125 15.347656 C 16.890625 15.5 17.035156 15.601562 17.199219 15.601562 L 18.800781 15.601562 C 18.933594 15.601562 19.058594 15.53125 19.132812 15.421875 L 20.734375 13.023438 C 20.769531 12.964844 20.792969 12.898438 20.800781 12.828125 L 21.171875 7.601562 L 22.433594 7.601562 L 22.800781 12.03125 C 22.800781 12.066406 22.808594 12.097656 22.820312 12.125 L 23.199219 13.265625 Z M 23.199219 14.714844 "/>
<path style=" stroke:none;fill-rule:nonzero;fill:rgb(0%,68.627451%,50.196078%);fill-opacity:1;" d="M 9.679688 13.207031 L 7.679688 12.808594 C 7.492188 12.769531 7.300781 12.871094 7.230469 13.050781 L 6.527344 14.800781 L 5.414062 14.800781 L 3.992188 12.664062 L 3.601562 7.171875 C 3.585938 6.960938 3.410156 6.800781 3.199219 6.800781 L 1.199219 6.800781 C 0.992188 6.800781 0.816406 6.960938 0.800781 7.167969 L 0.40625 11.921875 L 0.0195312 13.074219 C 0.0078125 13.113281 0 13.15625 0 13.199219 L 0 14.800781 C 0 14.855469 0.0117188 14.910156 0.0351562 14.960938 L 1.632812 18.5625 C 1.652344 18.605469 1.683594 18.648438 1.71875 18.683594 L 3.199219 20.164062 L 3.199219 21.199219 L 2.800781 21.199219 C 2.578125 21.199219 2.398438 21.378906 2.398438 21.601562 L 2.398438 23.601562 C 2.398438 23.820312 2.578125 24 2.800781 24 L 8.398438 24 C 8.621094 24 8.800781 23.820312 8.800781 23.601562 L 8.800781 21.601562 C 8.800781 21.378906 8.621094 21.199219 8.398438 21.199219 L 8 21.199219 L 8 19.367188 L 9.082031 18.28125 C 9.140625 18.226562 9.179688 18.152344 9.195312 18.070312 L 9.992188 13.671875 C 10.03125 13.457031 9.894531 13.25 9.679688 13.207031 Z M 8 23.199219 L 3.199219 23.199219 L 3.199219 22 L 8 22 Z M 8.429688 17.804688 L 7.316406 18.917969 C 7.242188 18.992188 7.199219 19.09375 7.199219 19.199219 L 7.199219 21.199219 L 4 21.199219 L 4 20 C 4 19.894531 3.957031 19.792969 3.882812 19.71875 L 2.335938 18.167969 L 0.800781 14.714844 L 0.800781 13.265625 L 1.179688 12.125 C 1.191406 12.097656 1.195312 12.066406 1.199219 12.03125 L 1.566406 7.601562 L 2.828125 7.601562 L 3.199219 12.828125 C 3.207031 12.898438 3.226562 12.964844 3.265625 13.023438 L 4.867188 15.421875 C 4.941406 15.535156 5.066406 15.601562 5.199219 15.601562 L 6.800781 15.601562 C 6.964844 15.601562 7.109375 15.5 7.171875 15.347656 L 7.847656 13.65625 L 9.136719 13.914062 Z M 8.429688 17.804688 "/>
<path style=" stroke:none;fill-rule:nonzero;fill:rgb(0%,68.627451%,50.196078%);fill-opacity:1;" d="M 11.601562 0 L 12.398438 0 L 12.398438 0.800781 L 11.601562 0.800781 Z M 11.601562 0 "/>
<path style=" stroke:none;fill-rule:nonzero;fill:rgb(0%,68.627451%,50.196078%);fill-opacity:1;" d="M 7.472656 2.039062 L 8.039062 1.472656 L 8.605469 2.039062 L 8.039062 2.605469 Z M 7.472656 2.039062 "/>
<path style=" stroke:none;fill-rule:nonzero;fill:rgb(0%,68.627451%,50.196078%);fill-opacity:1;" d="M 6 5.601562 L 6.800781 5.601562 L 6.800781 6.398438 L 6 6.398438 Z M 6 5.601562 "/>
<path style=" stroke:none;fill-rule:nonzero;fill:rgb(0%,68.627451%,50.196078%);fill-opacity:1;" d="M 7.472656 9.960938 L 8.039062 9.394531 L 8.605469 9.960938 L 8.039062 10.527344 Z M 7.472656 9.960938 "/>
<path style=" stroke:none;fill-rule:nonzero;fill:rgb(0%,68.627451%,50.196078%);fill-opacity:1;" d="M 15.394531 9.960938 L 15.960938 9.394531 L 16.527344 9.960938 L 15.960938 10.527344 Z M 15.394531 9.960938 "/>
<path style=" stroke:none;fill-rule:nonzero;fill:rgb(0%,68.627451%,50.196078%);fill-opacity:1;" d="M 17.199219 5.601562 L 18 5.601562 L 18 6.398438 L 17.199219 6.398438 Z M 17.199219 5.601562 "/>
<path style=" stroke:none;fill-rule:nonzero;fill:rgb(0%,68.627451%,50.196078%);fill-opacity:1;" d="M 15.394531 2.039062 L 15.960938 1.472656 L 16.527344 2.039062 L 15.960938 2.605469 Z M 15.394531 2.039062 "/>
<path style=" stroke:none;fill-rule:nonzero;fill:rgb(0%,68.627451%,50.196078%);fill-opacity:1;" d="M 16.398438 6 C 16.398438 3.78125 14.746094 1.910156 12.542969 1.632812 C 10.339844 1.359375 8.28125 2.769531 7.734375 4.921875 C 7.191406 7.070312 8.332031 9.292969 10.398438 10.101562 L 10.398438 12.398438 C 10.398438 12.84375 10.757812 13.199219 11.199219 13.199219 L 12.800781 13.199219 C 13.242188 13.199219 13.601562 12.84375 13.601562 12.398438 L 13.601562 10.101562 C 15.292969 9.445312 16.40625 7.816406 16.398438 6 Z M 11.199219 12.398438 L 11.199219 11.601562 L 12.800781 11.601562 L 12.800781 12.398438 Z M 13.199219 9.390625 L 13.199219 7.367188 L 14.28125 6.28125 L 13.71875 5.71875 L 12.515625 6.917969 C 12.441406 6.992188 12.398438 7.09375 12.398438 7.199219 L 12.398438 10.800781 L 11.601562 10.800781 L 11.601562 7.199219 C 11.601562 7.09375 11.558594 6.992188 11.484375 6.917969 L 10.28125 5.71875 L 9.71875 6.28125 L 10.800781 7.367188 L 10.800781 9.390625 C 9.148438 8.808594 8.15625 7.117188 8.453125 5.390625 C 8.75 3.660156 10.246094 2.398438 12 2.398438 C 13.753906 2.398438 15.25 3.660156 15.546875 5.390625 C 15.84375 7.117188 14.851562 8.808594 13.199219 9.390625 Z M 13.199219 9.390625 "/>
</g>
</svg>
