<?xml version="1.0" encoding="UTF-8"?>
<svg xmlns="http://www.w3.org/2000/svg" xmlns:xlink="http://www.w3.org/1999/xlink" width="24pt" height="24pt" viewBox="0 0 24 24" version="1.1">
<g id="surface1">
<path style=" stroke:none;fill-rule:nonzero;fill:rgb(0%,68.627451%,50.196078%);fill-opacity:1;" d="M 14.21875 2.644531 C 13.664062 1.832031 13.171875 1.082031 12.71875 0.398438 C 12.652344 0.296875 12.554688 0.199219 12.457031 0.136719 C 12.066406 -0.125 11.542969 0.00390625 11.28125 0.398438 C 10.859375 1.082031 10.371094 1.796875 9.78125 2.644531 C 7.207031 6.429688 3.359375 12.132812 3.359375 15.394531 C 3.359375 17.773438 4.339844 19.925781 5.902344 21.488281 C 7.46875 23.023438 9.621094 24 12 24 C 14.378906 24 16.53125 23.023438 18.097656 21.457031 C 19.660156 19.890625 20.640625 17.742188 20.640625 15.359375 C 20.640625 12.101562 16.792969 6.429688 14.21875 2.644531 Z M 16.921875 20.285156 C 15.652344 21.554688 13.921875 22.304688 12 22.304688 C 10.078125 22.304688 8.347656 21.523438 7.078125 20.285156 C 5.804688 19.011719 5.054688 17.285156 5.054688 15.359375 C 5.054688 12.621094 8.738281 7.175781 11.183594 3.558594 C 11.476562 3.136719 11.738281 2.710938 12 2.351562 C 12.261719 2.710938 12.523438 3.136719 12.816406 3.558594 C 15.261719 7.210938 18.945312 12.621094 18.945312 15.359375 C 18.945312 17.285156 18.160156 19.011719 16.921875 20.285156 Z M 16.921875 20.285156 "/>
<path style=" stroke:none;fill-rule:nonzero;fill:rgb(0%,68.627451%,50.196078%);fill-opacity:1;" d="M 17.054688 14.773438 C 16.597656 14.742188 16.207031 15.101562 16.171875 15.554688 C 16.140625 16.273438 15.914062 16.957031 15.554688 17.542969 C 15.195312 18.132812 14.671875 18.652344 14.054688 18.980469 C 13.664062 19.207031 13.5 19.730469 13.726562 20.121094 C 13.988281 20.578125 14.511719 20.707031 14.902344 20.480469 C 15.78125 19.988281 16.5 19.273438 16.988281 18.457031 C 17.507812 17.644531 17.804688 16.664062 17.835938 15.652344 C 17.867188 15.199219 17.507812 14.804688 17.054688 14.773438 Z M 17.054688 14.773438 "/>
</g>
</svg>
